<svg xmlns="http://www.w3.org/2000/svg" width="51" height="50" viewBox="0 0 51 50" fill="none">
  <path d="M22.789 18.7591C22.9124 18.401 22.9435 18.0239 23.0097 17.6558C23.2785 16.1452 23.5403 14.6266 23.8041 13.113C23.8312 12.9555 23.8633 12.7981 23.8844 12.6396C23.8984 12.5282 23.9536 12.4971 24.0619 12.4982C26.9165 12.5302 29.7708 12.5376 32.6248 12.5202C32.8575 12.5202 33.0872 12.4781 33.3209 12.5142C33.8224 12.5914 34.1123 12.8482 34.2237 13.3477C34.3069 13.7309 34.3771 14.1171 34.4473 14.5032C34.5684 15.1719 34.6877 15.8406 34.8054 16.5093C34.8465 16.746 34.8435 16.748 34.6319 16.8433C33.9171 17.1604 33.2651 17.6035 32.7071 18.1513C31.8397 19.0186 31.2467 20.1219 31.0019 21.3239C30.8163 22.171 30.7692 23.0425 30.8625 23.9047C30.8603 23.9237 30.8631 23.943 30.8706 23.9606C30.8782 23.9782 30.8903 23.9935 30.9056 24.005C30.9829 23.9669 31.0129 23.8816 31.0601 23.8154C31.7111 22.9127 32.5155 22.1965 33.5436 21.7492C34.1373 21.4801 34.7862 21.355 35.4373 21.3841C35.6319 21.3941 35.6379 21.3931 35.665 21.5847C36.0047 23.6208 36.3451 25.6577 36.6861 27.6952C36.9268 29.1395 37.1676 30.5842 37.4083 32.0293C37.4264 32.1396 37.4585 32.2469 37.4845 32.3563C37.4916 32.4746 37.4845 32.596 37.5066 32.7134C37.5668 33.1065 37.635 33.4997 37.7002 33.8919C37.8737 34.9451 38.0452 35.9983 38.2268 37.0515C38.2529 37.205 38.2358 37.3725 38.3321 37.5119C38.2468 37.6052 38.1315 37.561 38.0372 37.561C35.6299 37.561 33.2226 37.561 30.8153 37.561C30.6709 37.561 30.5265 37.561 30.383 37.561C30.2015 37.561 30.1985 37.561 30.1704 37.3865C30.028 36.5012 29.8865 35.6158 29.7461 34.7305C29.5575 33.5522 29.3696 32.374 29.1824 31.1958C29.0961 30.6501 29.0119 30.1045 28.9246 29.5588C28.9176 29.5147 28.9326 29.4585 28.8544 29.4154C28.7992 29.6681 28.7431 29.9099 28.6929 30.1536C28.3198 31.9721 27.9396 33.7906 27.5966 35.6151C27.5113 36.0635 27.4271 36.5119 27.3829 36.9672C27.3448 37.3685 27.075 37.5891 26.6588 37.5751C24.1973 37.4958 21.7348 37.545 19.2734 37.54C17.9093 37.54 16.5461 37.546 15.183 37.551C14.6053 37.551 14.0275 37.558 13.4508 37.562C13.3384 37.57 13.2256 37.5574 13.1178 37.5249C13.019 37.4893 12.9322 37.4267 12.8671 37.3443C12.8021 37.2618 12.7614 37.1629 12.7496 37.0585C12.64 36.4513 12.5296 35.8448 12.4186 35.239C12.1365 33.701 11.8543 32.1657 11.5721 30.6331C11.4969 30.2238 11.4226 29.8146 11.3434 29.3823C11.2431 29.5678 11.2521 29.7544 11.226 29.9289C10.9485 31.7906 10.6747 33.6522 10.4045 35.5138C10.3173 36.1157 10.233 36.7175 10.1468 37.3193C10.1397 37.3664 10.1247 37.4126 10.1187 37.4607C10.1187 37.4748 10.1159 37.4887 10.1102 37.5016C10.1046 37.5145 10.0963 37.526 10.0858 37.5355C10.0754 37.5449 10.0632 37.5521 10.0498 37.5565C10.0365 37.5609 10.0223 37.5624 10.0083 37.561C9.95217 37.561 9.896 37.561 9.83983 37.561H2.48557C2.18466 37.561 2.19067 37.561 2.23982 37.2732C2.47654 35.8689 2.71292 34.4647 2.94897 33.0604C3.16629 31.7745 3.38496 30.4883 3.60496 29.2017C3.80155 28.0409 3.99748 26.8804 4.19274 25.7202C4.42277 24.3554 4.65346 22.9899 4.88483 21.6238C5.13559 20.1473 5.38836 18.6715 5.64313 17.1964C5.86246 15.9305 6.08547 14.6674 6.31215 13.4069C6.333 13.2968 6.36458 13.1889 6.40644 13.0849C6.46575 12.9175 6.57183 12.7706 6.71209 12.6616C6.85236 12.5526 7.02094 12.4862 7.19783 12.4701C7.58916 12.4325 7.98251 12.4204 8.3754 12.434C9.65795 12.434 10.9412 12.4396 12.2251 12.451C13.5802 12.462 14.9333 12.4821 16.2904 12.4982C16.507 12.4982 16.511 12.4982 16.5491 12.7138C16.7785 13.991 17.0075 15.2675 17.2362 16.5434L17.9825 20.704C18.25 22.1932 18.5174 23.6823 18.7849 25.1715C19.0277 26.527 19.2711 27.8824 19.5151 29.2378C19.7569 30.5769 19.9986 31.9159 20.2453 33.2771C20.3396 33.1306 20.3326 32.9762 20.3577 32.8317C20.6974 30.9173 21.0337 29.0015 21.3667 27.0843C21.5593 25.9803 21.7516 24.877 21.9435 23.7743C21.9575 23.693 22.0007 23.6018 21.9214 23.5255C21.9565 23.4373 21.9926 23.348 22.0217 23.2597C22.2684 22.67 22.4768 22.0649 22.6456 21.4483C22.7425 20.9874 22.8056 20.5201 22.8342 20.05C22.8666 19.6194 22.8515 19.1864 22.789 18.7591Z" fill="#0EAD8D"/>
  <path d="M38.337 37.5099C38.2367 37.3705 38.2578 37.203 38.2317 37.0495C38.0502 35.9973 37.8786 34.9431 37.7051 33.8899C37.6399 33.4978 37.5717 33.1046 37.5115 32.7114C37.4935 32.594 37.4965 32.4727 37.4895 32.3543C37.4895 31.2319 37.4965 30.1095 37.4965 28.9871C37.4965 27.0793 37.4965 25.1715 37.4965 23.2638C37.4965 23.007 37.4965 22.7512 37.4965 22.4944C37.4981 22.4144 37.4859 22.3346 37.4604 22.2587C37.0351 21.0461 36.004 20.376 34.7632 20.5465C33.6047 20.706 32.5966 21.1544 31.7731 21.9949C31.7499 22.0166 31.7254 22.0371 31.6999 22.0561C31.6883 22.0605 31.6762 22.0632 31.6638 22.0641C31.7538 21.6234 31.9022 21.1967 32.1052 20.7953C33.04 18.9447 34.5365 17.8444 36.5757 17.4763C36.6705 17.461 36.7665 17.4543 36.8626 17.4562H42.0603C42.2609 17.4562 42.2609 17.4562 42.2609 17.6698C42.2564 18.0169 42.3469 18.3586 42.5224 18.658C42.6979 18.9575 42.9519 19.2033 43.2569 19.369C44.0323 19.8203 44.9621 19.6197 45.5368 18.8935C45.818 18.5483 45.9705 18.1161 45.9681 17.6708C45.9681 17.4472 45.9471 17.4562 46.1928 17.4562H48.3594C48.6031 17.4562 48.5951 17.4391 48.5951 17.6909C48.5951 19.5191 48.5951 21.347 48.5951 23.1745C48.5951 23.6881 48.5951 24.2006 48.5951 24.7142C48.5951 24.8275 48.562 24.8676 48.4446 24.8666C47.6913 24.8666 46.9401 24.8666 46.1828 24.8666C46.1489 24.8631 46.1153 24.8568 46.0825 24.8476C46.0801 24.6307 46.0582 24.4146 46.0173 24.2016C45.9236 23.7967 45.7105 23.4293 45.4055 23.1469C45.1006 22.8646 44.718 22.6802 44.3071 22.6178C43.62 22.5275 43.0683 22.8084 42.632 23.3199C42.3094 23.693 42.134 24.1709 42.1385 24.664C42.1145 27.3411 42.1175 30.0192 42.1185 32.6963C42.1185 34.0424 42.1265 35.3895 42.1325 36.7356C42.1325 36.9522 42.1359 37.1685 42.1425 37.3845C42.1425 37.4788 42.1064 37.5159 42.0152 37.5099C41.959 37.5099 41.9028 37.5099 41.8466 37.5099H38.337Z" fill="#222222"/>
  <path d="M22.789 18.7591C22.8526 19.1853 22.8691 19.6172 22.8382 20.047C22.8096 20.5171 22.7465 20.9844 22.6496 21.4452C22.4808 22.0619 22.2724 22.6669 22.0257 23.2567C21.9916 23.345 21.9555 23.4343 21.9254 23.5225C21.5332 24.5637 21.1059 25.5898 20.6776 26.6169C20.5555 26.9245 20.4144 27.2243 20.2554 27.5146C20.2172 27.314 20.1761 27.1184 20.141 26.9198C19.7017 24.4457 19.2624 21.9715 18.823 19.4973C18.6886 18.741 18.5532 17.9848 18.4098 17.2295C18.3952 17.1685 18.3982 17.1047 18.4184 17.0454C18.4386 16.9861 18.4753 16.9337 18.5241 16.8945C18.9494 16.4802 19.3667 16.0589 19.7849 15.6377C19.9775 15.4431 19.9675 15.5103 19.8291 15.2896C19.3195 14.4745 18.8076 13.6607 18.2934 12.8482L18.1931 12.6817C18.3416 12.6807 18.4894 12.7023 18.6314 12.7459C19.1035 12.8342 19.5746 12.9274 20.0447 13.0257C20.1303 13.0433 20.2188 13.0413 20.3035 13.0197C20.9123 12.8783 21.5212 12.7409 22.13 12.6025C22.1922 12.5795 22.2591 12.5726 22.3246 12.5824C22.3024 12.6563 22.2648 12.7247 22.2143 12.783C21.6867 13.6055 21.1581 14.4273 20.6285 15.2485C20.4881 15.4661 20.4891 15.4661 20.6997 15.5995C21.8582 16.3458 22.5764 17.3849 22.789 18.7591Z" fill="#222222"/>
  <path d="M48.6433 35.1026C48.642 35.5982 48.4937 36.0823 48.2173 36.4938C47.941 36.9052 47.5488 37.2255 47.0905 37.4143C46.6322 37.603 46.1282 37.6516 45.6423 37.5541C45.1563 37.4565 44.7101 37.2172 44.3602 36.8662C44.0102 36.5152 43.772 36.0684 43.6758 35.5822C43.5797 35.0959 43.6297 34.5921 43.8197 34.1343C44.0097 33.6765 44.3311 33.2853 44.7433 33.0101C45.1556 32.7348 45.6401 32.588 46.1358 32.588C46.8008 32.5919 47.4374 32.8583 47.907 33.3293C48.3766 33.8002 48.6412 34.4375 48.6433 35.1026Z" fill="#0EAD8D"/>
</svg>